<mxfile host="app.diagrams.net" agent="Mozilla/5.0 (Macintosh; Intel Mac OS X 10_15_7) AppleWebKit/605.1.15 (KHTML, like Gecko) Version/18.1 Safari/605.1.15" version="24.7.17">
  <diagram id="R2lEEEUBdFMjLlhIrx00" name="Page-1">
    <mxGraphModel dx="2284" dy="1955" grid="1" gridSize="10" guides="1" tooltips="1" connect="1" arrows="1" fold="1" page="1" pageScale="1" pageWidth="850" pageHeight="1100" math="0" shadow="0" extFonts="Permanent Marker^https://fonts.googleapis.com/css?family=Permanent+Marker">
      <root>
        <mxCell id="0" />
        <mxCell id="1" parent="0" />
        <mxCell id="dsP8yIUqofrxwqFrHQ6Y-1" value="Usuario" style="rounded=0;whiteSpace=wrap;html=1;labelBackgroundColor=none;fontSize=16;" vertex="1" parent="1">
          <mxGeometry x="10" y="50" width="120" height="60" as="geometry" />
        </mxCell>
        <mxCell id="dsP8yIUqofrxwqFrHQ6Y-2" value="Canción" style="rounded=0;whiteSpace=wrap;html=1;labelBackgroundColor=none;fontSize=16;" vertex="1" parent="1">
          <mxGeometry x="980" y="-110" width="120" height="60" as="geometry" />
        </mxCell>
        <mxCell id="dsP8yIUqofrxwqFrHQ6Y-3" value="Álbum" style="rounded=0;whiteSpace=wrap;html=1;labelBackgroundColor=none;fontSize=16;" vertex="1" parent="1">
          <mxGeometry x="980" y="-450" width="120" height="60" as="geometry" />
        </mxCell>
        <mxCell id="dsP8yIUqofrxwqFrHQ6Y-4" value="Género" style="rounded=0;whiteSpace=wrap;html=1;labelBackgroundColor=none;fontSize=16;" vertex="1" parent="1">
          <mxGeometry x="980" y="-810" width="120" height="60" as="geometry" />
        </mxCell>
        <mxCell id="dsP8yIUqofrxwqFrHQ6Y-80" style="edgeStyle=orthogonalEdgeStyle;rounded=0;orthogonalLoop=1;jettySize=auto;html=1;entryX=0.5;entryY=1;entryDx=0;entryDy=0;" edge="1" parent="1" source="dsP8yIUqofrxwqFrHQ6Y-7" target="dsP8yIUqofrxwqFrHQ6Y-73">
          <mxGeometry relative="1" as="geometry" />
        </mxCell>
        <mxCell id="dsP8yIUqofrxwqFrHQ6Y-7" value="Artista" style="rounded=0;whiteSpace=wrap;html=1;labelBackgroundColor=none;fontSize=16;" vertex="1" parent="1">
          <mxGeometry x="1390" y="-285" width="120" height="60" as="geometry" />
        </mxCell>
        <mxCell id="dsP8yIUqofrxwqFrHQ6Y-8" value="Grupo" style="rounded=0;whiteSpace=wrap;html=1;labelBackgroundColor=none;fontSize=16;" vertex="1" parent="1">
          <mxGeometry x="1540" y="25" width="120" height="60" as="geometry" />
        </mxCell>
        <mxCell id="dsP8yIUqofrxwqFrHQ6Y-10" value="Disco" style="rounded=0;whiteSpace=wrap;html=1;labelBackgroundColor=none;fontSize=16;" vertex="1" parent="1">
          <mxGeometry x="-530" y="-520" width="120" height="60" as="geometry" />
        </mxCell>
        <mxCell id="dsP8yIUqofrxwqFrHQ6Y-11" value="Colección" style="rounded=0;whiteSpace=wrap;html=1;labelBackgroundColor=none;fontSize=16;" vertex="1" parent="1">
          <mxGeometry x="-510" y="-880" width="120" height="60" as="geometry" />
        </mxCell>
        <mxCell id="dsP8yIUqofrxwqFrHQ6Y-12" value="Disco_Colección" style="rounded=0;whiteSpace=wrap;html=1;labelBackgroundColor=none;fontSize=16;" vertex="1" parent="1">
          <mxGeometry x="-520" y="-690" width="120" height="60" as="geometry" />
        </mxCell>
        <mxCell id="dsP8yIUqofrxwqFrHQ6Y-14" value="Ventas" style="rounded=0;whiteSpace=wrap;html=1;labelBackgroundColor=none;fontSize=16;" vertex="1" parent="1">
          <mxGeometry x="-590" y="90" width="120" height="60" as="geometry" />
        </mxCell>
        <mxCell id="dsP8yIUqofrxwqFrHQ6Y-15" value="ListaDesos" style="rounded=0;whiteSpace=wrap;html=1;labelBackgroundColor=none;fontSize=16;" vertex="1" parent="1">
          <mxGeometry x="-680" y="-120" width="120" height="60" as="geometry" />
        </mxCell>
        <mxCell id="dsP8yIUqofrxwqFrHQ6Y-16" value="Valoraciones" style="rounded=0;whiteSpace=wrap;html=1;labelBackgroundColor=none;fontSize=16;" vertex="1" parent="1">
          <mxGeometry x="-390" y="-270" width="120" height="60" as="geometry" />
        </mxCell>
        <mxCell id="dsP8yIUqofrxwqFrHQ6Y-25" value="correo" style="ellipse;whiteSpace=wrap;html=1;" vertex="1" parent="1">
          <mxGeometry x="-170" y="-90" width="120" height="80" as="geometry" />
        </mxCell>
        <mxCell id="dsP8yIUqofrxwqFrHQ6Y-27" value="apellidos" style="ellipse;whiteSpace=wrap;html=1;" vertex="1" parent="1">
          <mxGeometry x="270" y="-100" width="120" height="80" as="geometry" />
        </mxCell>
        <mxCell id="dsP8yIUqofrxwqFrHQ6Y-28" value="&lt;u&gt;nombre_usuario&lt;/u&gt;" style="ellipse;whiteSpace=wrap;html=1;" vertex="1" parent="1">
          <mxGeometry x="-10" y="-140" width="120" height="80" as="geometry" />
        </mxCell>
        <mxCell id="dsP8yIUqofrxwqFrHQ6Y-29" value="nombre" style="ellipse;whiteSpace=wrap;html=1;" vertex="1" parent="1">
          <mxGeometry x="140" y="-140" width="120" height="80" as="geometry" />
        </mxCell>
        <mxCell id="dsP8yIUqofrxwqFrHQ6Y-34" value="" style="endArrow=none;html=1;rounded=0;exitX=0.75;exitY=0;exitDx=0;exitDy=0;entryX=0.5;entryY=1;entryDx=0;entryDy=0;" edge="1" parent="1" source="dsP8yIUqofrxwqFrHQ6Y-1" target="dsP8yIUqofrxwqFrHQ6Y-29">
          <mxGeometry width="50" height="50" relative="1" as="geometry">
            <mxPoint x="170" y="-70" as="sourcePoint" />
            <mxPoint x="220" y="-120" as="targetPoint" />
          </mxGeometry>
        </mxCell>
        <mxCell id="dsP8yIUqofrxwqFrHQ6Y-36" value="" style="endArrow=none;html=1;rounded=0;exitX=0.5;exitY=0;exitDx=0;exitDy=0;entryX=0.575;entryY=1.025;entryDx=0;entryDy=0;entryPerimeter=0;" edge="1" parent="1" source="dsP8yIUqofrxwqFrHQ6Y-1" target="dsP8yIUqofrxwqFrHQ6Y-28">
          <mxGeometry width="50" height="50" relative="1" as="geometry">
            <mxPoint x="-50" y="-50" as="sourcePoint" />
            <mxPoint y="-100" as="targetPoint" />
          </mxGeometry>
        </mxCell>
        <mxCell id="dsP8yIUqofrxwqFrHQ6Y-37" value="" style="endArrow=none;html=1;rounded=0;entryX=1;entryY=0;entryDx=0;entryDy=0;exitX=0;exitY=1;exitDx=0;exitDy=0;" edge="1" parent="1" source="dsP8yIUqofrxwqFrHQ6Y-27" target="dsP8yIUqofrxwqFrHQ6Y-1">
          <mxGeometry width="50" height="50" relative="1" as="geometry">
            <mxPoint x="-100" y="60" as="sourcePoint" />
            <mxPoint x="-50" y="10" as="targetPoint" />
          </mxGeometry>
        </mxCell>
        <mxCell id="dsP8yIUqofrxwqFrHQ6Y-38" value="" style="endArrow=none;html=1;rounded=0;entryX=0.25;entryY=0;entryDx=0;entryDy=0;exitX=1;exitY=1;exitDx=0;exitDy=0;" edge="1" parent="1" source="dsP8yIUqofrxwqFrHQ6Y-25" target="dsP8yIUqofrxwqFrHQ6Y-1">
          <mxGeometry width="50" height="50" relative="1" as="geometry">
            <mxPoint x="-40" y="160" as="sourcePoint" />
            <mxPoint x="10" y="110" as="targetPoint" />
          </mxGeometry>
        </mxCell>
        <mxCell id="dsP8yIUqofrxwqFrHQ6Y-42" value="" style="endArrow=none;html=1;rounded=0;entryX=0.5;entryY=1;entryDx=0;entryDy=0;exitX=0.5;exitY=0;exitDx=0;exitDy=0;" edge="1" parent="1" source="dsP8yIUqofrxwqFrHQ6Y-2" target="dsP8yIUqofrxwqFrHQ6Y-46">
          <mxGeometry width="50" height="50" relative="1" as="geometry">
            <mxPoint x="910" y="40" as="sourcePoint" />
            <mxPoint x="1040" y="-220" as="targetPoint" />
          </mxGeometry>
        </mxCell>
        <mxCell id="dsP8yIUqofrxwqFrHQ6Y-43" value="" style="endArrow=none;html=1;rounded=0;entryX=0.5;entryY=1;entryDx=0;entryDy=0;exitX=0.5;exitY=0;exitDx=0;exitDy=0;" edge="1" parent="1" source="dsP8yIUqofrxwqFrHQ6Y-46" target="dsP8yIUqofrxwqFrHQ6Y-3">
          <mxGeometry width="50" height="50" relative="1" as="geometry">
            <mxPoint x="1040" y="-280" as="sourcePoint" />
            <mxPoint x="1110" y="-290" as="targetPoint" />
          </mxGeometry>
        </mxCell>
        <mxCell id="dsP8yIUqofrxwqFrHQ6Y-45" value="" style="endArrow=none;html=1;rounded=0;entryX=0.5;entryY=1;entryDx=0;entryDy=0;exitX=0.5;exitY=0;exitDx=0;exitDy=0;" edge="1" parent="1" source="dsP8yIUqofrxwqFrHQ6Y-49" target="dsP8yIUqofrxwqFrHQ6Y-4">
          <mxGeometry width="50" height="50" relative="1" as="geometry">
            <mxPoint x="1200" y="-490" as="sourcePoint" />
            <mxPoint x="1250" y="-540" as="targetPoint" />
          </mxGeometry>
        </mxCell>
        <mxCell id="dsP8yIUqofrxwqFrHQ6Y-46" value="Canción_Álbum" style="rhombus;whiteSpace=wrap;html=1;" vertex="1" parent="1">
          <mxGeometry x="975" y="-320" width="130" height="120" as="geometry" />
        </mxCell>
        <mxCell id="dsP8yIUqofrxwqFrHQ6Y-49" value="Álbum_Genero" style="rhombus;whiteSpace=wrap;html=1;" vertex="1" parent="1">
          <mxGeometry x="970" y="-650" width="140" height="100" as="geometry" />
        </mxCell>
        <mxCell id="dsP8yIUqofrxwqFrHQ6Y-51" value="" style="endArrow=none;html=1;rounded=0;entryX=0.5;entryY=1;entryDx=0;entryDy=0;" edge="1" parent="1" source="dsP8yIUqofrxwqFrHQ6Y-3" target="dsP8yIUqofrxwqFrHQ6Y-49">
          <mxGeometry width="50" height="50" relative="1" as="geometry">
            <mxPoint x="1200" y="-430" as="sourcePoint" />
            <mxPoint x="1250" y="-480" as="targetPoint" />
          </mxGeometry>
        </mxCell>
        <mxCell id="dsP8yIUqofrxwqFrHQ6Y-55" value="" style="endArrow=none;html=1;rounded=0;entryX=0.5;entryY=1;entryDx=0;entryDy=0;exitX=0.5;exitY=0;exitDx=0;exitDy=0;" edge="1" parent="1" source="dsP8yIUqofrxwqFrHQ6Y-10" target="dsP8yIUqofrxwqFrHQ6Y-12">
          <mxGeometry width="50" height="50" relative="1" as="geometry">
            <mxPoint x="-590" y="-490" as="sourcePoint" />
            <mxPoint x="-540" y="-540" as="targetPoint" />
          </mxGeometry>
        </mxCell>
        <mxCell id="dsP8yIUqofrxwqFrHQ6Y-56" value="" style="endArrow=none;html=1;rounded=0;exitX=0.5;exitY=0;exitDx=0;exitDy=0;entryX=0.5;entryY=1;entryDx=0;entryDy=0;" edge="1" parent="1" source="dsP8yIUqofrxwqFrHQ6Y-12" target="dsP8yIUqofrxwqFrHQ6Y-11">
          <mxGeometry width="50" height="50" relative="1" as="geometry">
            <mxPoint x="-310" y="-740" as="sourcePoint" />
            <mxPoint x="-260" y="-790" as="targetPoint" />
          </mxGeometry>
        </mxCell>
        <mxCell id="dsP8yIUqofrxwqFrHQ6Y-59" value="&lt;font style=&quot;font-size: 16px;&quot;&gt;Solista&lt;/font&gt;" style="rounded=0;whiteSpace=wrap;html=1;" vertex="1" parent="1">
          <mxGeometry x="1200" y="25" width="120" height="60" as="geometry" />
        </mxCell>
        <mxCell id="dsP8yIUqofrxwqFrHQ6Y-63" value="" style="triangle;whiteSpace=wrap;html=1;rotation=90;" vertex="1" parent="1">
          <mxGeometry x="1420" y="-155" width="60" height="80" as="geometry" />
        </mxCell>
        <mxCell id="dsP8yIUqofrxwqFrHQ6Y-64" value="&lt;div&gt;ES&lt;/div&gt;" style="text;html=1;align=center;verticalAlign=middle;whiteSpace=wrap;rounded=0;" vertex="1" parent="1">
          <mxGeometry x="1420" y="-135" width="60" height="30" as="geometry" />
        </mxCell>
        <mxCell id="dsP8yIUqofrxwqFrHQ6Y-66" value="" style="endArrow=none;html=1;rounded=0;exitX=0.5;exitY=1;exitDx=0;exitDy=0;entryX=0;entryY=0.5;entryDx=0;entryDy=0;" edge="1" parent="1" source="dsP8yIUqofrxwqFrHQ6Y-7" target="dsP8yIUqofrxwqFrHQ6Y-63">
          <mxGeometry relative="1" as="geometry">
            <mxPoint x="1850" y="-165" as="sourcePoint" />
            <mxPoint x="2010" y="-165" as="targetPoint" />
          </mxGeometry>
        </mxCell>
        <mxCell id="dsP8yIUqofrxwqFrHQ6Y-67" value="" style="endArrow=none;html=1;rounded=0;exitX=0.75;exitY=1;exitDx=0;exitDy=0;entryX=0.5;entryY=0;entryDx=0;entryDy=0;" edge="1" parent="1" source="dsP8yIUqofrxwqFrHQ6Y-64" target="dsP8yIUqofrxwqFrHQ6Y-8">
          <mxGeometry relative="1" as="geometry">
            <mxPoint x="1850" y="-165" as="sourcePoint" />
            <mxPoint x="2010" y="-165" as="targetPoint" />
          </mxGeometry>
        </mxCell>
        <mxCell id="dsP8yIUqofrxwqFrHQ6Y-68" value="" style="endArrow=none;html=1;rounded=0;exitX=0.32;exitY=1.036;exitDx=0;exitDy=0;exitPerimeter=0;entryX=0.5;entryY=0;entryDx=0;entryDy=0;" edge="1" parent="1" source="dsP8yIUqofrxwqFrHQ6Y-64" target="dsP8yIUqofrxwqFrHQ6Y-59">
          <mxGeometry relative="1" as="geometry">
            <mxPoint x="1850" y="-165" as="sourcePoint" />
            <mxPoint x="2010" y="-165" as="targetPoint" />
          </mxGeometry>
        </mxCell>
        <mxCell id="dsP8yIUqofrxwqFrHQ6Y-70" value="" style="endArrow=none;html=1;rounded=0;" edge="1" parent="1">
          <mxGeometry relative="1" as="geometry">
            <mxPoint x="1460" y="-15" as="sourcePoint" />
            <mxPoint x="1730" y="-115" as="targetPoint" />
          </mxGeometry>
        </mxCell>
        <mxCell id="dsP8yIUqofrxwqFrHQ6Y-72" value="" style="endArrow=none;html=1;rounded=0;" edge="1" parent="1">
          <mxGeometry relative="1" as="geometry">
            <mxPoint x="1460" y="-15" as="sourcePoint" />
            <mxPoint x="1240" y="-95" as="targetPoint" />
          </mxGeometry>
        </mxCell>
        <mxCell id="dsP8yIUqofrxwqFrHQ6Y-81" style="edgeStyle=orthogonalEdgeStyle;rounded=0;orthogonalLoop=1;jettySize=auto;html=1;exitX=0;exitY=0.5;exitDx=0;exitDy=0;entryX=1;entryY=0.5;entryDx=0;entryDy=0;" edge="1" parent="1" source="dsP8yIUqofrxwqFrHQ6Y-73" target="dsP8yIUqofrxwqFrHQ6Y-3">
          <mxGeometry relative="1" as="geometry" />
        </mxCell>
        <mxCell id="dsP8yIUqofrxwqFrHQ6Y-73" value="Escribe" style="shape=rhombus;perimeter=rhombusPerimeter;whiteSpace=wrap;html=1;align=center;" vertex="1" parent="1">
          <mxGeometry x="1330" y="-470" width="120" height="60" as="geometry" />
        </mxCell>
      </root>
    </mxGraphModel>
  </diagram>
</mxfile>
